<mxfile host="Electron" agent="Mozilla/5.0 (Windows NT 10.0; Win64; x64) AppleWebKit/537.36 (KHTML, like Gecko) draw.io/26.2.2 Chrome/134.0.6998.178 Electron/35.1.2 Safari/537.36" version="26.2.2">
  <diagram name="Page-1" id="fYbD9wFxrsgr1sGx9Aeb">
    <mxGraphModel dx="1999" dy="823" grid="1" gridSize="10" guides="1" tooltips="1" connect="1" arrows="1" fold="1" page="1" pageScale="1" pageWidth="850" pageHeight="1100" math="0" shadow="0">
      <root>
        <mxCell id="0" />
        <mxCell id="1" parent="0" />
        <mxCell id="Eb1YL_7E4O-mOn-sN5p6-36" value="start" style="ellipse;whiteSpace=wrap;html=1;" vertex="1" parent="1">
          <mxGeometry x="40" y="20" width="120" height="80" as="geometry" />
        </mxCell>
        <mxCell id="Eb1YL_7E4O-mOn-sN5p6-44" style="edgeStyle=orthogonalEdgeStyle;rounded=0;orthogonalLoop=1;jettySize=auto;html=1;entryX=0.5;entryY=0;entryDx=0;entryDy=0;" edge="1" parent="1" source="Eb1YL_7E4O-mOn-sN5p6-37" target="Eb1YL_7E4O-mOn-sN5p6-38">
          <mxGeometry relative="1" as="geometry" />
        </mxCell>
        <mxCell id="Eb1YL_7E4O-mOn-sN5p6-37" value="open the dictionary&amp;nbsp;" style="rounded=0;whiteSpace=wrap;html=1;" vertex="1" parent="1">
          <mxGeometry x="10" y="170" width="210" height="80" as="geometry" />
        </mxCell>
        <mxCell id="Eb1YL_7E4O-mOn-sN5p6-51" value="" style="edgeStyle=orthogonalEdgeStyle;rounded=0;orthogonalLoop=1;jettySize=auto;html=1;" edge="1" parent="1" source="Eb1YL_7E4O-mOn-sN5p6-38" target="Eb1YL_7E4O-mOn-sN5p6-37">
          <mxGeometry relative="1" as="geometry" />
        </mxCell>
        <mxCell id="Eb1YL_7E4O-mOn-sN5p6-38" value="word not on page?" style="rhombus;whiteSpace=wrap;html=1;" vertex="1" parent="1">
          <mxGeometry x="20" y="290" width="190" height="120" as="geometry" />
        </mxCell>
        <mxCell id="Eb1YL_7E4O-mOn-sN5p6-39" value="stop" style="ellipse;whiteSpace=wrap;html=1;" vertex="1" parent="1">
          <mxGeometry x="55" y="470" width="120" height="80" as="geometry" />
        </mxCell>
        <mxCell id="Eb1YL_7E4O-mOn-sN5p6-47" style="edgeStyle=orthogonalEdgeStyle;rounded=0;orthogonalLoop=1;jettySize=auto;html=1;" edge="1" parent="1" source="Eb1YL_7E4O-mOn-sN5p6-40" target="Eb1YL_7E4O-mOn-sN5p6-41">
          <mxGeometry relative="1" as="geometry" />
        </mxCell>
        <mxCell id="Eb1YL_7E4O-mOn-sN5p6-40" value="word&amp;gt;last word on page?" style="rhombus;whiteSpace=wrap;html=1;" vertex="1" parent="1">
          <mxGeometry x="340" y="400" width="190" height="120" as="geometry" />
        </mxCell>
        <mxCell id="Eb1YL_7E4O-mOn-sN5p6-52" style="edgeStyle=orthogonalEdgeStyle;rounded=0;orthogonalLoop=1;jettySize=auto;html=1;" edge="1" parent="1" source="Eb1YL_7E4O-mOn-sN5p6-41">
          <mxGeometry relative="1" as="geometry">
            <mxPoint x="120" y="270" as="targetPoint" />
          </mxGeometry>
        </mxCell>
        <mxCell id="Eb1YL_7E4O-mOn-sN5p6-41" value="turn page forward" style="rounded=0;whiteSpace=wrap;html=1;" vertex="1" parent="1">
          <mxGeometry x="510" y="580" width="210" height="80" as="geometry" />
        </mxCell>
        <mxCell id="Eb1YL_7E4O-mOn-sN5p6-50" style="edgeStyle=orthogonalEdgeStyle;rounded=0;orthogonalLoop=1;jettySize=auto;html=1;" edge="1" parent="1" source="Eb1YL_7E4O-mOn-sN5p6-42">
          <mxGeometry relative="1" as="geometry">
            <mxPoint x="110" y="280" as="targetPoint" />
            <Array as="points">
              <mxPoint x="275" y="495" />
              <mxPoint y="495" />
              <mxPoint y="280" />
              <mxPoint x="20" y="280" />
            </Array>
          </mxGeometry>
        </mxCell>
        <mxCell id="Eb1YL_7E4O-mOn-sN5p6-42" value="turn page backward" style="rounded=0;whiteSpace=wrap;html=1;" vertex="1" parent="1">
          <mxGeometry x="175" y="580" width="200" height="80" as="geometry" />
        </mxCell>
        <mxCell id="Eb1YL_7E4O-mOn-sN5p6-43" style="edgeStyle=orthogonalEdgeStyle;rounded=0;orthogonalLoop=1;jettySize=auto;html=1;entryX=0.436;entryY=-0.037;entryDx=0;entryDy=0;entryPerimeter=0;" edge="1" parent="1" source="Eb1YL_7E4O-mOn-sN5p6-36" target="Eb1YL_7E4O-mOn-sN5p6-37">
          <mxGeometry relative="1" as="geometry" />
        </mxCell>
        <mxCell id="Eb1YL_7E4O-mOn-sN5p6-45" style="edgeStyle=orthogonalEdgeStyle;rounded=0;orthogonalLoop=1;jettySize=auto;html=1;entryX=0.5;entryY=0;entryDx=0;entryDy=0;" edge="1" parent="1" source="Eb1YL_7E4O-mOn-sN5p6-38" target="Eb1YL_7E4O-mOn-sN5p6-40">
          <mxGeometry relative="1" as="geometry">
            <mxPoint x="435" y="390" as="targetPoint" />
          </mxGeometry>
        </mxCell>
        <mxCell id="Eb1YL_7E4O-mOn-sN5p6-46" style="edgeStyle=orthogonalEdgeStyle;rounded=0;orthogonalLoop=1;jettySize=auto;html=1;entryX=0.475;entryY=0.125;entryDx=0;entryDy=0;entryPerimeter=0;" edge="1" parent="1" source="Eb1YL_7E4O-mOn-sN5p6-40" target="Eb1YL_7E4O-mOn-sN5p6-42">
          <mxGeometry relative="1" as="geometry" />
        </mxCell>
        <mxCell id="Eb1YL_7E4O-mOn-sN5p6-53" value="yes" style="text;html=1;align=center;verticalAlign=middle;resizable=0;points=[];autosize=1;strokeColor=none;fillColor=none;" vertex="1" parent="1">
          <mxGeometry x="230" y="318" width="40" height="30" as="geometry" />
        </mxCell>
        <mxCell id="Eb1YL_7E4O-mOn-sN5p6-54" value="no" style="text;html=1;align=center;verticalAlign=middle;resizable=0;points=[];autosize=1;strokeColor=none;fillColor=none;" vertex="1" parent="1">
          <mxGeometry x="310" y="518" width="40" height="30" as="geometry" />
        </mxCell>
        <mxCell id="Eb1YL_7E4O-mOn-sN5p6-55" value="yes" style="text;html=1;align=center;verticalAlign=middle;resizable=0;points=[];autosize=1;strokeColor=none;fillColor=none;" vertex="1" parent="1">
          <mxGeometry x="480" y="508" width="40" height="30" as="geometry" />
        </mxCell>
      </root>
    </mxGraphModel>
  </diagram>
</mxfile>
